# xmcd
#
# Track frame offsets:
#	183
#	16670
#	30355
#	42045
#	73673
#	85983
#	101020
#	113398
#	131280
#	145973
#	165300
#
# Disc length: 2754 seconds
#
# Revision: 0
# Processed by: cddbd v1.5.1PL2 Copyright (c) Steve Scherf et al.
# Submitted via: dBpowerAMP V4.0
#
DISCID=790ac00b
DTITLE=Lëtzebuerger Sänger - Erbäi dir Bacchusbréider
DYEAR=1900
DGENRE=Country
TTITLE0=d'Lidd vum Muselgréchen
TTITLE1=Kätche Kätche
TTITLE2=Doft vum Greechen
TTITLE3=nu loosst mer eent sangen
TTITLE4=Oweslidd
TTITLE5=ech drénken gär mäi Pätchen
TTITLE6=d'Krunnemécken
TTITLE7=Erbai dir Bacchusbridder
TTITLE8=loosst mer nach e Pättchen drénken
TTITLE9=mäi Wéngert
TTITLE10=Am Herrscht-Medley
EXTD=
EXTT0=
EXTT1=
EXTT2=
EXTT3=
EXTT4=
EXTT5=
EXTT6=
EXTT7=
EXTT8=
EXTT9=
EXTT10=
PLAYORDER=
